
	<svg xmlns="http://www.w3.org/2000/svg" style="display:none;">
	<symbol id="facebook" viewBox="0 0 18 17" >
			<g>
				<path d="M0.976 16.916C0.437 16.916 0 16.498 0 15.982V0.933023C0 0.417023 0.437 -0.000976562 0.976 -0.000976562H16.709C17.248 -0.000976562 17.685 0.417023 17.685 0.933023V15.982C17.685 16.498 17.248 16.916 16.709 16.916H12.202V10.365H14.501L14.845 7.81202H12.202V6.18202C12.202 5.44302 12.417 4.93902 13.525 4.93902L14.938 4.93802V2.65502C14.694 2.62402 13.855 2.55402 12.879 2.55402C10.841 2.55402 9.446 3.74402 9.446 5.92902V7.81202H7.141V10.365H9.446V16.916H0.976Z"/>
			</g>
		</symbol>

		<symbol id="twitter" viewBox="0 0 19 16">
			<g>
				<path d="M16.762 2.53C17.567 2.031 18.185 1.239 18.476 0.296C17.722 0.758 16.889 1.095 15.999 1.275C15.29 0.49 14.276 0 13.154 0C11.003 0 9.25702 1.809 9.25702 4.039C9.25702 4.356 9.29002 4.663 9.35702 4.959C6.11702 4.79 3.24602 3.184 1.32202 0.737C0.986024 1.336 0.795023 2.03 0.795023 2.77C0.795023 4.171 1.48302 5.407 2.52902 6.132C1.89102 6.112 1.28902 5.929 0.762023 5.628V5.678C0.762023 7.636 2.10602 9.269 3.89002 9.638C3.56302 9.733 3.21902 9.78 2.86302 9.78C2.61202 9.78 2.36702 9.756 2.12902 9.708C2.62502 11.312 4.06402 12.48 5.77002 12.512C4.43602 13.596 2.75402 14.242 0.929023 14.242C0.615023 14.242 0.303023 14.224 -0.000976562 14.187C1.72402 15.331 3.77402 16 5.97402 16C13.145 16 17.065 9.846 17.065 4.508L17.055 3.984C17.817 3.414 18.478 2.704 18.999 1.893C18.301 2.214 17.549 2.432 16.761 2.529L16.762 2.53Z"/>
			</g>
		</symbol>

		<symbol id="instagram" viewBox="0 0 20 19">
			<g>
				<path d="M9.51798 0C12.103 0 12.427 0.01 13.442 0.055C14.455 0.099 15.147 0.253 15.752 0.478C16.378 0.711 16.909 1.022 17.438 1.528C17.967 2.034 18.293 2.542 18.536 3.141C18.771 3.72 18.932 4.382 18.978 5.351C19.024 6.322 19.035 6.632 19.035 9.105C19.035 11.578 19.024 11.888 18.978 12.859C18.932 13.828 18.771 14.49 18.536 15.069C18.293 15.668 17.967 16.175 17.438 16.682C16.909 17.188 16.378 17.499 15.752 17.732C15.147 17.957 14.455 18.111 13.442 18.155C12.427 18.199 12.103 18.21 9.51798 18.21C6.93298 18.21 6.60898 18.2 5.59398 18.155C4.58098 18.111 3.88898 17.957 3.28398 17.732C2.65798 17.499 2.12698 17.188 1.59798 16.682C1.06898 16.176 0.742977 15.668 0.499977 15.069C0.264977 14.49 0.103977 13.828 0.0579766 12.859C0.0119766 11.888 0.000976562 11.578 0.000976562 9.105C0.000976562 6.632 0.0119766 6.322 0.0579766 5.351C0.103977 4.382 0.264977 3.72 0.499977 3.141C0.742977 2.542 1.06898 2.035 1.59798 1.528C2.12698 1.022 2.65798 0.711 3.28398 0.478C3.88898 0.253 4.58098 0.099 5.59398 0.055C6.60898 0.011 6.93298 0 9.51798 0V0ZM9.51798 1.64C6.97598 1.64 6.67498 1.649 5.67198 1.693C4.74398 1.733 4.23998 1.882 3.90498 2.006C3.46098 2.171 3.14398 2.368 2.81098 2.687C2.47798 3.006 2.27198 3.309 2.09898 3.734C1.96898 4.055 1.81398 4.537 1.77098 5.425C1.72498 6.385 1.71498 6.673 1.71498 9.104C1.71498 11.535 1.72498 11.823 1.77098 12.783C1.81298 13.671 1.96798 14.153 2.09898 14.474C2.27198 14.899 2.47798 15.202 2.81098 15.521C3.14398 15.84 3.46098 16.037 3.90498 16.202C4.23998 16.327 4.74398 16.475 5.67198 16.515C6.67598 16.559 6.97698 16.568 9.51798 16.568C12.06 16.568 12.361 16.559 13.364 16.515C14.292 16.475 14.796 16.326 15.131 16.202C15.575 16.037 15.892 15.84 16.225 15.521C16.558 15.202 16.764 14.899 16.937 14.474C17.067 14.153 17.222 13.671 17.265 12.783C17.311 11.823 17.321 11.535 17.321 9.104C17.321 6.673 17.311 6.385 17.265 5.425C17.223 4.537 17.068 4.055 16.937 3.734C16.764 3.309 16.558 3.006 16.225 2.687C15.892 2.368 15.575 2.171 15.131 2.006C14.796 1.881 14.292 1.733 13.364 1.693C12.36 1.649 12.059 1.64 9.51798 1.64ZM9.51798 4.429C12.217 4.429 14.406 6.522 14.406 9.104C14.406 11.686 12.218 13.779 9.51798 13.779C6.81898 13.779 4.62998 11.686 4.62998 9.104C4.62998 6.522 6.81798 4.429 9.51798 4.429ZM9.51798 12.139C11.27 12.139 12.691 10.78 12.691 9.104C12.691 7.428 11.271 6.069 9.51798 6.069C7.76598 6.069 6.34498 7.428 6.34498 9.104C6.34498 10.78 7.76498 12.139 9.51798 12.139ZM15.741 4.244C15.741 4.847 15.23 5.337 14.599 5.337C13.968 5.337 13.457 4.848 13.457 4.244C13.457 3.641 13.968 3.151 14.599 3.151C15.23 3.151 15.741 3.64 15.741 4.244Z"/>
			</g>
		</symbol>

		<symbol id="linkedin" viewBox="0 0 510 510">
			<g>
				<path d="M459,0H51C22.95,0,0,22.95,0,51v408c0,28.05,22.95,51,51,51h408c28.05,0,51-22.95,51-51V51C510,22.95,487.05,0,459,0z M153,433.5H76.5V204H153V433.5z M114.75,160.65c-25.5,0-45.9-20.4-45.9-45.9s20.4-45.9,45.9-45.9s45.9,20.4,45.9,45.9
					S140.25,160.65,114.75,160.65z M433.5,433.5H357V298.35c0-20.399-17.85-38.25-38.25-38.25s-38.25,17.851-38.25,38.25V433.5H204
					V204h76.5v30.6c12.75-20.4,40.8-35.7,63.75-35.7c48.45,0,89.25,40.8,89.25,89.25V433.5z" />
			</g>
		</symbol>

	    <symbol id="youtube" viewBox="0 0 21 15">
			<g>
				<path d="M8.10898 9.731L8.10798 4.051L13.63 6.901L8.10898 9.731ZM20.234 3.067C20.234 3.067 20.034 1.674 19.422 1.061C18.645 0.256 17.774 0.252 17.374 0.205C14.514 0 10.224 0 10.224 0H10.215C10.215 0 5.92498 0 3.06498 0.205C2.66498 0.252 1.79498 0.256 1.01698 1.061C0.404976 1.674 0.204977 3.067 0.204977 3.067C0.204977 3.067 0.000976562 4.703 0.000976562 6.339V7.873C0.000976562 9.509 0.204977 11.145 0.204977 11.145C0.204977 11.145 0.403977 12.538 1.01698 13.151C1.79498 13.956 2.81598 13.931 3.27098 14.015C4.90598 14.17 10.22 14.218 10.22 14.218C10.22 14.218 14.514 14.212 17.374 14.007C17.773 13.96 18.644 13.956 19.422 13.15C20.034 12.537 20.234 11.144 20.234 11.144C20.234 11.144 20.438 9.509 20.438 7.872V6.338C20.438 4.703 20.234 3.066 20.234 3.066V3.067Z"/>
			</g>
		</symbol>

		<symbol id="pinterest" viewBox="0 0 17 18">
			<g>
				<path d="M8.5 0C3.80576 0 0 3.80576 0 8.5C0 12.1029 2.23868 15.1811 5.40082 16.4193C5.32387 15.7477 5.26091 14.7123 5.42881 13.9778C5.58272 13.3132 6.42222 9.75226 6.42222 9.75226C6.42222 9.75226 6.17037 9.24156 6.17037 8.493C6.17037 7.3107 6.85597 6.42922 7.70947 6.42922C8.43704 6.42922 8.78683 6.9749 8.78683 7.62551C8.78683 8.35309 8.3251 9.44444 8.08025 10.4588C7.87737 11.3054 8.507 11.9979 9.33951 11.9979C10.8506 11.9979 12.0119 10.4029 12.0119 8.10823C12.0119 6.07243 10.5498 4.65226 8.45802 4.65226C6.03745 4.65226 4.61728 6.4642 4.61728 8.3391C4.61728 9.06667 4.89712 9.85021 5.24691 10.277C5.31687 10.3609 5.32387 10.4379 5.30288 10.5218C5.23992 10.7877 5.093 11.3683 5.06502 11.4872C5.03004 11.6412 4.9391 11.6761 4.77819 11.5992C3.71482 11.1025 3.05021 9.55638 3.05021 8.30412C3.05021 5.62469 4.99506 3.16214 8.6679 3.16214C11.6132 3.16214 13.9078 5.26091 13.9078 8.07325C13.9078 11.0045 12.0609 13.3621 9.50041 13.3621C8.63992 13.3621 7.8284 12.9144 7.55556 12.3827L7.02387 14.4045C6.83498 15.1461 6.31728 16.0695 5.96749 16.6362C6.76502 16.8811 7.60453 17.014 8.48601 17.014C13.1802 17.014 16.986 13.2082 16.986 8.51399C17 3.80576 13.1942 0 8.5 0Z" fill="#241C15"/>
			</g>
		</symbol>

		<symbol id="behance" viewBox="0 0 511.958 511.958">
			<g>
				<path d="M210.624,240.619c10.624-5.344,18.656-11.296,24.16-17.728c9.792-11.584,14.624-26.944,14.624-45.984
					c0-18.528-4.832-34.368-14.496-47.648c-16.128-21.632-43.424-32.704-82.016-33.28H0v312.096h142.56
					c16.064,0,30.944-1.376,44.704-4.192c13.76-2.848,25.664-8.064,35.744-15.68c8.96-6.624,16.448-14.848,22.4-24.544
					c9.408-14.656,14.112-31.264,14.112-49.76c0-17.92-4.128-33.184-12.32-45.728C238.912,255.627,226.752,246.443,210.624,240.619z
					 M63.072,150.187h68.864c15.136,0,27.616,1.632,37.408,4.864c11.328,4.704,16.992,14.272,16.992,28.864
					c0,13.088-4.32,22.24-12.864,27.392c-8.608,5.152-19.776,7.744-33.472,7.744H63.072V150.187z M171.968,348.427
					c-7.616,3.68-18.336,5.504-32.064,5.504H63.072v-83.232h77.888c13.568,0.096,24.128,1.888,31.68,5.248
					c13.44,6.08,20.128,17.216,20.128,33.504C192.768,328.651,185.856,341.579,171.968,348.427z" />
				<rect x="327.168" y="110.539" width="135.584" height="38.848" />
				<path
					d="M509.856,263.851c-2.816-18.08-9.024-33.984-18.688-47.712c-10.592-15.552-24.032-26.944-40.384-34.144
					c-16.288-7.232-34.624-10.848-55.04-10.816c-34.272,0-62.112,10.72-83.648,32c-21.472,21.344-32.224,52.032-32.224,92.032
					c0,42.656,11.872,73.472,35.744,92.384c23.776,18.944,51.232,28.384,82.4,28.384c37.728,0,67.072-11.232,88.032-33.632
					c13.408-14.144,20.992-28.064,22.656-41.728H446.24c-3.616,6.752-7.808,12.032-12.608,15.872
					c-8.704,7.04-20.032,10.56-33.92,10.56c-13.216,0-24.416-2.912-33.76-8.704c-15.424-9.28-23.488-25.536-24.512-48.672h170.464
					C512.16,289.739,511.52,274.411,509.856,263.851z M342.976,269.835c2.24-15.008,7.68-26.912,16.32-35.712
					c8.64-8.768,20.864-13.184,36.512-13.216c14.432,0,26.496,4.128,36.32,12.416c9.696,8.352,15.168,20.48,16.288,36.512H342.976z" />
			</g>
		</symbol>

		<symbol id="codepen" viewBox="0 0 24 24">
			<g>
				<path
					d="m.455 16.512 10.969 7.314c.374.23.774.233 1.152 0l10.969-7.314c.281-.187.455-.522.455-.857v-7.312c0-.335-.174-.67-.455-.857l-10.969-7.313c-.374-.23-.774-.232-1.152 0l-10.969 7.313c-.281.187-.455.522-.455.857v7.312c0 .335.174.67.455.857zm10.514 4.528-8.076-5.384 3.603-2.411 4.473 2.987zm2.062 0v-4.808l4.473-2.987 3.603 2.411zm8.907-7.314-2.585-1.727 2.585-1.728zm-8.907-10.767 8.076 5.384-3.603 2.411-4.473-2.987zm-1.031 6.602 3.643 2.438-3.643 2.438-3.643-2.438zm-1.031-6.602v4.808l-4.473 2.987-3.603-2.411zm-8.906 7.314v-.001l2.585 1.728-2.585 1.728z" />
			</g>
		</symbol>

		<symbol id="telegram" viewBox="0 0 24 24">
			<g>
				<path
					d="m.415 11.196 5.869 2.925c.227.112.495.104.712-.023l5.224-3.037-3.162 2.802c-.161.143-.253.347-.253.562v6.825c0 .72.919 1.023 1.35.451l2.537-3.373 6.274 3.573c.44.253 1.004-.001 1.106-.504l3.913-19.5c.117-.586-.466-1.064-1.008-.846l-22.5 8.775c-.604.236-.643 1.081-.062 1.37zm21.83-8.249-3.439 17.137-5.945-3.386c-.324-.185-.741-.103-.971.201l-1.585 2.107v-4.244l8.551-7.576c.677-.599-.101-1.664-.874-1.21l-11.39 6.622-3.992-1.989z" />
			</g>
		</symbol>
	</svg>
